<?xml version="1.0" standalone="no"?>
<!DOCTYPE svg PUBLIC "-//W3C//DTD SVG 20010904//EN"
 "http://www.w3.org/TR/2001/REC-SVG-20010904/DTD/svg10.dtd">
<svg version="1.0" xmlns="http://www.w3.org/2000/svg"
 width="1400.000000pt" height="402.000000pt" viewBox="0 0 1400.000000 402.000000"
 preserveAspectRatio="xMidYMid meet">
<metadata>
Created by potrace 1.15, written by Peter Selinger 2001-2017
</metadata>
<g transform="translate(0.000000,402.000000) scale(0.100000,-0.100000)"
fill="#000000" stroke="none">
<path fill="#FF0000" d="M12560 3020 l0 -120 -120 0 -120 0 0 -160 0 -160 120 0 120 0 0 -120
0 -120 160 0 160 0 0 120 0 120 120 0 120 0 0 160 0 160 -120 0 -120 0 0 120
0 120 -160 0 -160 0 0 -120z"/>
<path d="M6340 2899 c-181 -21 -356 -129 -470 -291 -260 -371 -134 -923 255
-1116 330 -165 739 -35 889 282 14 30 26 61 26 68 0 8 -54 28 -150 54 l-150
41 -25 -42 c-13 -24 -47 -63 -75 -88 -156 -140 -379 -106 -500 75 -145 218
-92 546 111 674 145 91 332 60 431 -72 l33 -43 148 -1 147 0 0 160 0 160 -103
0 -104 0 -55 43 c-85 66 -147 89 -258 96 -52 3 -120 3 -150 0z"/>
<path d="M890 2800 l0 -80 65 0 65 0 0 -555 0 -555 -65 0 -65 0 0 -85 0 -85
230 0 230 0 0 85 0 85 -70 0 -70 0 0 282 0 283 285 -285 285 -285 0 -83 0 -82
193 2 192 3 3 83 3 82 -78 0 -79 0 -294 288 -294 287 302 254 c166 140 302
260 302 267 0 11 18 14 70 14 l70 0 0 80 0 80 -167 -2 -166 -3 2 -76 2 -77
-288 -248 c-158 -136 -300 -259 -315 -272 l-28 -26 0 273 c0 212 3 272 13 270
6 -1 39 -1 72 0 l60 1 0 80 0 80 -232 0 -233 0 0 -80z"/>
<path d="M2365 2803 l0 -78 65 -5 65 -5 3 -552 2 -553 -65 0 -65 0 0 -85 0
-85 225 0 225 0 0 85 0 85 -65 0 -65 0 2 553 3 552 63 1 64 1 1 82 2 81 -230
0 -230 0 0 -77z"/>
<path d="M3000 2690 l0 -190 95 0 95 0 0 110 0 110 165 0 165 0 0 -555 0 -555
-67 0 -68 0 3 -85 3 -85 230 0 229 0 0 85 0 84 -72 3 -73 3 0 550 0 550 188 3
187 2 0 -110 0 -110 100 0 100 0 0 190 0 190 -640 0 -640 0 0 -190z"/>
<path d="M4847 2873 c-3 -5 -91 -270 -196 -591 l-192 -583 -57 2 -57 3 -3
-132 -3 -132 271 0 270 0 0 130 0 130 -42 1 c-24 1 -56 0 -72 -1 -28 -2 -29
-1 -23 37 4 21 14 71 23 111 l16 72 229 0 c175 0 230 -3 233 -12 2 -7 15 -52
30 -99 14 -47 26 -91 26 -98 0 -9 -17 -12 -57 -11 -32 1 -64 1 -70 1 -10 -1
-13 -34 -13 -131 l0 -130 270 0 270 0 0 130 0 130 -54 0 -54 0 -95 293 c-53
160 -139 426 -192 590 l-97 297 -178 0 c-98 0 -181 -3 -183 -7z m253 -482 c38
-120 70 -226 70 -235 0 -14 -18 -16 -150 -16 -115 0 -150 3 -150 13 0 7 29
111 65 232 36 120 65 220 65 222 0 2 7 3 15 3 10 0 35 -66 85 -219z"/>
<path d="M7160 2660 l0 -220 155 0 155 0 0 95 0 95 85 0 85 0 0 -465 0 -465
-75 0 -75 0 0 -130 0 -130 310 0 310 0 0 130 0 130 -62 2 c-35 0 -69 1 -75 1
-10 -1 -13 98 -13 463 l0 464 95 0 94 0 3 -92 3 -93 153 -3 152 -3 1 188 c0
104 1 203 2 221 l2 32 -652 0 -653 0 0 -220z"/>
<path d="M8590 2750 l0 -130 70 0 c64 0 70 -2 75 -22 3 -13 4 -219 3 -458 l-3
-435 -70 0 -70 -1 -3 -132 -3 -132 306 0 305 0 0 130 0 130 -59 0 c-100 0 -91
-48 -91 466 l0 454 75 0 75 0 0 130 0 130 -305 0 -305 0 0 -130z"/>
<path d="M9330 2749 l0 -132 65 5 65 6 71 -222 c91 -285 253 -789 285 -888
l26 -78 188 0 189 0 196 594 195 594 65 -6 65 -5 0 132 0 131 -310 0 -310 0 0
-130 0 -130 85 0 c64 0 85 -3 85 -13 0 -8 -52 -186 -115 -397 -63 -211 -115
-385 -115 -387 0 -12 -30 0 -34 15 -3 9 -57 183 -121 387 -63 203 -115 375
-115 382 0 10 20 13 75 13 l75 0 0 130 0 130 -305 0 -305 0 0 -131z"/>
<path d="M10860 2735 l0 -145 75 0 75 0 0 -446 0 -445 -72 2 -73 2 -3 -131 -3
-132 571 0 570 0 0 260 0 260 -155 0 -155 0 0 -130 0 -130 -180 0 -180 0 2
168 3 167 138 0 137 0 0 138 0 137 -140 0 -140 0 0 140 0 140 180 0 180 0 0
-100 0 -101 155 3 156 3 0 240 0 240 -571 3 -570 2 0 -145z"/>
<path d="M880 905 l0 -135 5565 0 5565 0 0 135 0 135 -5565 0 -5565 0 0 -135z"/>
</g>
</svg>
