<svg xmlns="http://www.w3.org/2000/svg" xml:space="preserve" class="img-responsive svg replaced-svg" style="enable-background:new 0 0 480.002 480.002" viewBox="0 0 480.002 480.002"><path d="m195.353 299.344-17.64-5.864a14.201 14.201 0 0 1-9.712-13.48c0-8.837 7.163-16 16-16s16 7.163 16 16h16c-.055-14.547-9.914-27.227-24-30.864V232h-16v17.136c-14.085 3.637-23.945 16.317-24 30.864a30.176 30.176 0 0 0 20.648 28.656l17.64 5.864a14.201 14.201 0 0 1 9.712 13.48c0 8.837-7.163 16-16 16s-16-7.163-16-16h-16c.055 14.547 9.915 27.227 24 30.864V376h16v-17.136c14.086-3.637 23.945-16.317 24-30.864a30.176 30.176 0 0 0-20.648-28.656z"/><path d="M472.001 176H310.273a184.218 184.218 0 0 0-62.272-49.488V92l28.8-21.6a8.002 8.002 0 0 0 3.2-6.4V8a8 8 0 0 0-8-8h-32a8 8 0 0 0-5.656 2.344l-10.344 10.344-10.344-10.344A8 8 0 0 0 208.001 0h-48a8 8 0 0 0-5.656 2.344l-10.344 10.344-10.344-10.344A8 8 0 0 0 128.001 0h-32a8 8 0 0 0-8 8v56a8.002 8.002 0 0 0 3.2 6.4l28.8 21.6v34.592c-60.56 29.304-120 108.016-120 208.968 0 91.792 67.064 144.44 184 144.44a308.89 308.89 0 0 0 56.6-5.024 8 8 0 0 0 7.4 5.024h224a8 8 0 0 0 8-8V184a8 8 0 0 0-8-8zm-368-116V16h20.688l13.656 13.656a8 8 0 0 0 11.312 0L163.313 16h41.376l13.656 13.656a8 8 0 0 0 11.312 0L243.313 16h20.688v44l-26.664 20H130.665l-26.664-20zm128 36v24h-96V96h96zm8 275.784c-37.434 30.996-92.907 25.778-123.904-11.656-30.996-37.434-25.778-92.907 11.656-123.904 32.559-26.96 79.688-26.96 112.247 0v135.56zm0-187.784v32.456c-48.347-31.01-112.679-16.956-143.689 31.391-31.01 48.347-16.956 112.679 31.391 143.689 34.216 21.947 78.083 21.947 112.299 0v67.28a291.326 291.326 0 0 1-56 5.184c-50.512 0-168-12.512-168-128.44 0-76.536 45.872-171.768 122.672-199.56h90.712a157.604 157.604 0 0 1 59.464 40h-40.848a8 8 0 0 0-8.001 8zm224 280h-208V256h208v208zm0-224h-208v-48h208v48z"/><path d="M312.001 272h-32a8 8 0 0 0-8 8v32a8 8 0 0 0 8 8h32a8 8 0 0 0 8-8v-32a8 8 0 0 0-8-8zm-8 32h-16v-16h16v16zM376.001 272h-32a8 8 0 0 0-8 8v32a8 8 0 0 0 8 8h32a8 8 0 0 0 8-8v-32a8 8 0 0 0-8-8zm-8 32h-16v-16h16v16zM440.001 272h-32a8 8 0 0 0-8 8v32a8 8 0 0 0 8 8h32a8 8 0 0 0 8-8v-32a8 8 0 0 0-8-8zm-8 32h-16v-16h16v16zM312.001 336h-32a8 8 0 0 0-8 8v32a8 8 0 0 0 8 8h32a8 8 0 0 0 8-8v-32a8 8 0 0 0-8-8zm-8 32h-16v-16h16v16zM376.001 336h-32a8 8 0 0 0-8 8v32a8 8 0 0 0 8 8h32a8 8 0 0 0 8-8v-32a8 8 0 0 0-8-8zm-8 32h-16v-16h16v16zM312.001 400h-32a8 8 0 0 0-8 8v32a8 8 0 0 0 8 8h32a8 8 0 0 0 8-8v-32a8 8 0 0 0-8-8zm-8 32h-16v-16h16v16zM376.001 400h-32a8 8 0 0 0-8 8v32a8 8 0 0 0 8 8h32a8 8 0 0 0 8-8v-32a8 8 0 0 0-8-8zm-8 32h-16v-16h16v16zM440.001 336h-32a8 8 0 0 0-8 8v96a8 8 0 0 0 8 8h32a8 8 0 0 0 8-8v-96a8 8 0 0 0-8-8zm-8 96h-16v-80h16v80zM432.001 208h16v16h-16zM400.001 208h16v16h-16zM368.001 208h16v16h-16z"/></svg>